<svg xmlns="http://www.w3.org/2000/svg" viewBox="0 0 506.37 439.05"><defs><style>.cls-1{fill:#621e1c;stroke:#621e1c;}.cls-1,.cls-2,.cls-3,.cls-4,.cls-5,.cls-6,.cls-7,.cls-8,.cls-9{stroke-miterlimit:22.93;stroke-width:0.57px;}.cls-1,.cls-10,.cls-2,.cls-3,.cls-4,.cls-5,.cls-6,.cls-7,.cls-8,.cls-9{fill-rule:evenodd;}.cls-2{fill:#894a49;stroke:#894a49;}.cls-3{fill:#cd9491;stroke:#cd9491;}.cls-4{fill:#b37675;stroke:#b37675;}.cls-5{fill:#fff;stroke:#fff;}.cls-6{fill:#ca898b;stroke:#ca898b;}.cls-7,.cls-8{fill:#450400;}.cls-7{stroke:#450400;}.cls-8{stroke:#4a0500;}.cls-9{fill:#510600;stroke:#510600;}.cls-10,.cls-11{fill:#641616;}.cls-11{font-size:25px;stroke:#641616;stroke-miterlimit:10;font-family:Roboto-Bold, Roboto;font-weight:700;}</style></defs><title>Ресурс 2</title><g id="Слой_2" data-name="Слой 2"><g id="_1" data-name="1"><path class="cls-1" d="M85.16,327.44h0c-2.75-.94-5.5-1.88-11.28-5.92a188.66,188.66,0,0,1-22.67-19.27,173.64,173.64,0,0,1-22.61-27.7,196.09,196.09,0,0,1-18.51-35,134.94,134.94,0,0,1-8.87-35.77,181.34,181.34,0,0,1,0-36.61,162.94,162.94,0,0,1,6.63-33.51A149.55,149.55,0,0,1,42.77,74.45,161.87,161.87,0,0,1,66.84,54,149.55,149.55,0,0,1,90.93,40.22c8.8-4,19-7.93,24.71-10s6.84-2.29,7.93-2.95a11.92,11.92,0,0,1,5-2.31c2.91-.59,7.72-.7,12.45-.93s9.36-.56,13.09-1,6.55-1,9.44-1.53a64.47,64.47,0,0,1,9-1.38,66.9,66.9,0,0,1,10.22.42,58.6,58.6,0,0,1,10.74,1.84,21,21,0,0,1,7.85,4.12,15.25,15.25,0,0,1,3.52,5.15,97.07,97.07,0,0,0-12.5-.06,20.75,20.75,0,0,0-6.28,1.72,20.57,20.57,0,0,0-2.73,1,1.22,1.22,0,0,0-.5,1.67,6.19,6.19,0,0,0,2.23,2,6.44,6.44,0,0,0,3,.91,24.85,24.85,0,0,0,4.83-.1,15.91,15.91,0,0,0,4.58-1.19A14.77,14.77,0,0,1,203.5,36a52.18,52.18,0,0,1,11.17.88A23,23,0,0,1,221.23,39a18.64,18.64,0,0,1,3.64,2.14c.72.64.78,1.17.5,2.25a12.2,12.2,0,0,1-2.13,4.24,18.89,18.89,0,0,1-4.64,4,19.22,19.22,0,0,1-5.07,2.24A48.56,48.56,0,0,1,208.1,55a17.82,17.82,0,0,0-4,.9c-.87.41-1.15,1-.2,3.73a81.23,81.23,0,0,0,5.32,11.44,65.76,65.76,0,0,0,6.9,9.8,65.29,65.29,0,0,0,9.19,9.47c3.94,3.26,9.07,6.6,11.92,9.08s3.4,4.07,3.82,6.22a25.07,25.07,0,0,1,.42,7.18,11.24,11.24,0,0,1-2.76,6.32,17.23,17.23,0,0,1-8.37,5.13,55.21,55.21,0,0,1-14.1,1.87,38.07,38.07,0,0,1-9.21-1c-2.12-.47-3.54-.88-5.39-1.15a29.1,29.1,0,0,0-6.41-.17,85,85,0,0,1-8.53.83,81.48,81.48,0,0,1-14.2-1.06c-4.6-.79-8.16-2-10.68-2.38a9.05,9.05,0,0,0-5.3.71,14.37,14.37,0,0,1-3.9,1.32,15.09,15.09,0,0,1-5.38-.59c-2.19-.56-4.84-1.44-8.18-2.32s-7.4-1.76-11-2.46-6.78-1.24-10.3-1.68a59.53,59.53,0,0,0-12.24-.44A84.93,84.93,0,0,0,88.6,119,114.49,114.49,0,0,0,70.21,126,70.37,70.37,0,0,0,55,136.12,93.67,93.67,0,0,0,40.17,152a71.23,71.23,0,0,0-10.08,20.21,108.75,108.75,0,0,0-4.72,25.94A148.39,148.39,0,0,0,26.43,227a125.86,125.86,0,0,0,7,28,188.24,188.24,0,0,0,13.92,29,134.55,134.55,0,0,0,16.79,22.77C70.45,313.72,77.81,320.58,85.16,327.44Z"/><path class="cls-2" d="M112.59,339.9c-1.85-1.19-3.7-2.37-5.77-3.78s-4.36-3-7.35-5.35-6.7-5.31-11.56-9.4S77,312.08,72.14,307.23a110.45,110.45,0,0,1-12.68-15.12,190.54,190.54,0,0,1-12.28-19.68,155.87,155.87,0,0,1-8.65-19.51,159.26,159.26,0,0,1-5.44-17.39,120.21,120.21,0,0,1-2.55-14.42c-.51-4.23-.77-7.84-.86-11.6a99.9,99.9,0,0,1,.46-12.42,130.59,130.59,0,0,1,2.4-15.19,79,79,0,0,1,4.34-13.65,82.75,82.75,0,0,1,7-13.32,72.19,72.19,0,0,1,8.54-10.59,49.5,49.5,0,0,1,7.7-6.4c2.84-2,6.32-4.23,9.85-6.28a102.2,102.2,0,0,1,10.41-5.35A66.43,66.43,0,0,1,89.8,123,64.41,64.41,0,0,1,99,121.2a79,79,0,0,1,11.62-.5,145.06,145.06,0,0,1,15.65,1.23,72,72,0,0,1,12.53,2.91,97.23,97.23,0,0,1,12.7,4.93,50.57,50.57,0,0,1,10.35,6.58,65.21,65.21,0,0,1,7.24,7.4c1-.31,2-.62,3.42-1.1s3.14-1.15,6.05-2.4,7-3.11,11-5c-.31,2.12-.62,4.23-.8,6.17s-.22,3.72-1.15,5.15-2.72,2.52-5,3.55-4.86,2-6.76,3a7.48,7.48,0,0,0-3.77,3.31,7.87,7.87,0,0,0-.65,4.94,7.16,7.16,0,0,0,2.58,3.8,17.39,17.39,0,0,0,5,2.92,75.68,75.68,0,0,0,8.71,2.8c3.22.87,6.51,1.63,9,2.1s4.32.68,6.1.88c-.49,3-1,6.08-1.35,8.15a15.59,15.59,0,0,1-1.09,4.09,3.2,3.2,0,0,1-2.67,2,40.8,40.8,0,0,1-6.66-.08c-2.48-.11-4.87-.11-7.25-.11a19.42,19.42,0,0,0,2.6,3.52,10.87,10.87,0,0,0,3.44,2.27,13.72,13.72,0,0,0,3.31.8c-1,.66-1.92,1.33-4.29,2.78s-6.16,3.7-9.58,5.55a104.05,104.05,0,0,1-9.51,4.59,49.66,49.66,0,0,1-9.41,3,51.19,51.19,0,0,1-9.91.88,47.78,47.78,0,0,1-8.35-.68,22.41,22.41,0,0,1-6-1.88c-1.64-.82-2.91-1.82-4.52-2.51a9.55,9.55,0,0,0-5.2-.78,8,8,0,0,0-4.1,2.37,11.45,11.45,0,0,0-2.73,4.19,29.73,29.73,0,0,0-1.74,6.68,18.14,18.14,0,0,0,.1,5,42.3,42.3,0,0,0-8.19,1.48,32.51,32.51,0,0,0-8.48,4.09,33.44,33.44,0,0,0-6.73,6.35,100,100,0,0,0-6.49,8.83,65.94,65.94,0,0,0-5.24,9.4,35.59,35.59,0,0,0-2.8,9.53,55.91,55.91,0,0,0-.22,9.78c.13,3.3.31,6.65.75,10A49.09,49.09,0,0,0,83,293.14,77.64,77.64,0,0,0,88.61,305c2.71,4.89,6.41,11.1,10.57,17.13S108,334.05,112.59,339.9Z"/><path class="cls-3" d="M176.31,417.52a19.4,19.4,0,0,1,1.26-3.66,8.27,8.27,0,0,1,2.31-2.72,19,19,0,0,1,3.41-2.16,11.66,11.66,0,0,1,3.37-1.08,27.24,27.24,0,0,1,4.45-.35c1.58,0,3.17.13,4.73.23s3.11.16,4.65.23a20.91,20.91,0,0,1-1.74,2.83,16.64,16.64,0,0,1-7.07,5.47,14.46,14.46,0,0,1-4.56,1.1c-1.87.18-4.29.18-6.18.17S177.68,417.54,176.31,417.52Z"/><path class="cls-3" d="M161.55,405.73a16.31,16.31,0,0,1,1.74-2.12,20.38,20.38,0,0,1,2.32-1.87,13.08,13.08,0,0,1,2.55-1.56,13.64,13.64,0,0,1,3.22-.86,20.67,20.67,0,0,1,3.27-.15,30,30,0,0,1,3.66.26,27.19,27.19,0,0,1,3.19.75,23.62,23.62,0,0,1-2.79,3.26,19,19,0,0,1-4.3,3.13,11.7,11.7,0,0,1-4.49,1.15,15.72,15.72,0,0,1-4.87-.18A10.28,10.28,0,0,1,161.55,405.73Z"/><path class="cls-3" d="M150.26,384.66a17.62,17.62,0,0,1,3.21-1,15,15,0,0,1,3.36-.14,11.76,11.76,0,0,1,2.83.49,15.55,15.55,0,0,1,4.57,2,16,16,0,0,1,3.87,3.88,9.36,9.36,0,0,1,1.38,2.94c-1.34.06-2.69.13-4.17.16a37.22,37.22,0,0,1-4.86-.16,15.85,15.85,0,0,1-5.16-1.38,9.7,9.7,0,0,1-3.67-3.14A10.32,10.32,0,0,1,150.26,384.66Z"/><path class="cls-4" d="M160.43,375c-3.3-1.84-6.6-3.69-10.19-5.94a97.72,97.72,0,0,1-12-8.76c-4.54-3.88-9.73-9-13.41-12.55a94.09,94.09,0,0,1-8.63-9.05c-2.79-3.46-6.23-8.34-10-14s-7.86-12.09-11.12-17.88a98.3,98.3,0,0,1-7.26-15.47,57.23,57.23,0,0,1-2.78-11.87,59.67,59.67,0,0,1-.5-9.33,42.79,42.79,0,0,1,1-8.9,34,34,0,0,1,3-7.68c1.3-2.56,2.84-5.29,4.34-7.62a48.37,48.37,0,0,1,4.53-6.05,42.13,42.13,0,0,1,5.09-4.85,40.17,40.17,0,0,1,5.35-3.63,22.23,22.23,0,0,1,5.22-2.2,25,25,0,0,1,6.65-.88,30.7,30.7,0,0,1,8,1.12c2.82.77,5.72,2,8.72,3.08s6.08,2.18,8.08,2.82,2.93.86,3.48,1.3a3.82,3.82,0,0,1,1,2.14,29.88,29.88,0,0,0,1.39,4.07,21.57,21.57,0,0,0,3,5,16.76,16.76,0,0,0,4.31,3.72,20.7,20.7,0,0,0,4.8,2.09c1.61.48,3.2.79,5.31,1.41a68.17,68.17,0,0,1,7,2.51c2.28,1,4.2,2,5,3.86s.39,4.64-.2,7.66a29.09,29.09,0,0,1-2.82,8.72,15,15,0,0,1-5.67,5.22,40.63,40.63,0,0,1-7,3.38,23.09,23.09,0,0,1-6.93,1.3c-2.78.15-6.39.11-9.23.28s-4.91.58-6.16,1.41-1.7,2.12-2.16,3.9a21.54,21.54,0,0,0-.81,6.63,24.37,24.37,0,0,0,2,8.05,50.84,50.84,0,0,0,4.56,8.06c1.87,2.82,4.07,5.9,5.46,7.86s2,2.8,2,3.94a13.92,13.92,0,0,1-.81,4.14A31.33,31.33,0,0,0,151,337.2a61.86,61.86,0,0,0-.29,7.11,56.5,56.5,0,0,0,.38,7.7,31.84,31.84,0,0,0,1.93,7.07c1,2.67,2.36,6,3.66,8.72S159.2,372.75,160.43,375Z"/><path class="cls-3" d="M231.3,420.2c-2.91-1.76-5.81-3.52-9-5.46l-10.83-6.65c-4.23-2.6-9.25-5.68-14.18-9.07s-9.78-7.09-14.09-10.3a102.73,102.73,0,0,1-11.54-9.38,58.37,58.37,0,0,1-9-11.93A50.82,50.82,0,0,1,157,353.32,48.61,48.61,0,0,1,156,337.46a39.51,39.51,0,0,1,4.14-13.2,79.42,79.42,0,0,1,7.22-11.72c2.87-3.92,6.21-8,9.28-11.83s5.87-7.54,8.67-11.22a60.56,60.56,0,0,0-.3,8.8,21.1,21.1,0,0,0,1.68,7A11.79,11.79,0,0,0,190,310c1.32,1,2.82,1.15,4.65,1.52a16.24,16.24,0,0,1,5.48,2,7.37,7.37,0,0,1,2.77,3.77,19.28,19.28,0,0,1,.64,4.27,33,33,0,0,0,1.23,6.59,18,18,0,0,0,3.1,6c1.22,1.45,2.52,2.16,2.74,3.64s-.64,3.76-1.74,6.43-2.44,5.76-4.51,7.22-4.87,1.31-7.28,1.54a10.51,10.51,0,0,0-5.63,1.86,6.45,6.45,0,0,0-1.85,3.92,11.77,11.77,0,0,0,0,5.55,39.55,39.55,0,0,0,4.49,10.13c2.51,4.31,6.13,9.59,9.69,14.44s7.09,9.24,11.67,14.4S225.66,414.3,231.3,420.2Z"/><path class="cls-5" d="M105.82,254.1a26.83,26.83,0,0,1-.3,3.59c-.22,1.34-.62,2.9-.91,4.37a39.53,39.53,0,0,0-.57,4.13c-.11,1.3-.15,2.53-.15,3.87a24.13,24.13,0,0,0,.24,3.92,4.43,4.43,0,0,0,1.3,2.64,10.51,10.51,0,0,0,2.93,1.85,17.23,17.23,0,0,0,3.39,1.06c1.43.33,3.36.72,5.06.94a19.62,19.62,0,0,0,4.84.09,16.58,16.58,0,0,0,5.13-1.27,8.2,8.2,0,0,0,3.26-2.73,7.62,7.62,0,0,0,1.28-3.57,26.43,26.43,0,0,0,.17-5.39,31.11,31.11,0,0,0-.83-4.83c-.35-1.54-.71-3.12-1.19-4.6s-1.1-2.84-1.67-4.14-1.11-2.53-1.63-3.76a32.76,32.76,0,0,1,2.29,3.35,31.25,31.25,0,0,1,1.89,4.11c.57,1.48,1.1,3,1.52,4.32a24.53,24.53,0,0,1,.95,3.65,35.42,35.42,0,0,1,.41,4.43,20.24,20.24,0,0,1-.22,4.69,9.38,9.38,0,0,1-1.71,3.92,9.89,9.89,0,0,1-3.28,2.7,13.2,13.2,0,0,1-4.23,1.28,33.39,33.39,0,0,1-5,.24,29.69,29.69,0,0,1-5.64-.5,29.21,29.21,0,0,1-5.35-1.79,28.21,28.21,0,0,1-3.94-2,3.77,3.77,0,0,1-1.85-2.18,11.72,11.72,0,0,1-.22-4c.14-1.65.44-3.54.8-5.48s.74-3.92,1.29-6.07S105.12,256.43,105.82,254.1Z"/><path class="cls-6" d="M294.65,419.22l-7.53,2c-.79-2.82-1.58-5.64-2.48-9.16s-1.92-7.75-3.26-13.38-3-12.68-4-17.53-1.16-7.48-.85-10.41a24,24,0,0,1,2.77-9.09c1.63-2.95,4.05-5.64,11.6-12.88s20.23-19.05,32.92-30.85l5.54,5.82c-2.15,2-4.31,4-11.11,10.39s-18.26,17-24.4,23-7,7.38-7.77,9.12a18.91,18.91,0,0,0-1.74,6.25c-.2,2.4.16,5.09,2,12.92S291.39,406.23,294.65,419.22Z"/><path class="cls-6" d="M373.45,363.08l6.73,4.89c-3.7,4.71-7.4,9.42-12.08,15s-10.37,11.93-15,16.77a134.32,134.32,0,0,1-11.14,10.48,30.24,30.24,0,0,1-6.91,4.65,21.85,21.85,0,0,1-7.71,1.71,91,91,0,0,1-13.41-.24c-5.61-.44-12.39-1.27-19.48-2.29s-14.49-2.2-21.88-3.39v-8.32c3.08.48,6.16,1,11,1.78s11.45,2,17.24,2.8,10.77,1.36,15.44,1.63a67.92,67.92,0,0,0,12.17-.18,14.75,14.75,0,0,0,7.86-3.45c2.77-2.14,6.38-5.53,12.72-12.71S364.37,374,373.45,363.08Z"/><path class="cls-7" d="M272.53,410.63c-4.69-.2-9.38-.39-12.44-.63a19.24,19.24,0,0,1-5.9-1,9.21,9.21,0,0,1-3.6-2.35,3.89,3.89,0,0,1-.92-2.95,3.52,3.52,0,0,1,1.15-2.26,9.9,9.9,0,0,1,2.32-1.49,10.39,10.39,0,0,1,2.5-1,9.65,9.65,0,0,1,2.8-.11,20.7,20.7,0,0,1,3,.49c1.13.25,2.47.61,3.86.95s2.86.67,4.08,1,2.18.69,3.15,1Z"/><path class="cls-8" d="M287.12,421.2l7.53-2c1.36,2,2.72,4.07,3.78,5.76a30.91,30.91,0,0,1,2.31,4.25,10.68,10.68,0,0,1,.84,3.54,9.67,9.67,0,0,1-.34,3.45,3.14,3.14,0,0,1-1.5,1.86,4.68,4.68,0,0,1-2.41.69,4.4,4.4,0,0,1-2.59-1,14.41,14.41,0,0,1-2.38-2.52,12.65,12.65,0,0,1-2-3.3,55.42,55.42,0,0,1-1.62-5.32C288.21,424.79,287.67,423,287.12,421.2Z"/><path class="cls-9" d="M326.54,315.62c1.27-1.19,2.55-2.38,5-4.67s6.18-5.67,15-13.89,22.72-21.24,31-28.48,11.05-8.7,13.89-9.76a37.61,37.61,0,0,1,8.37-2,23.7,23.7,0,0,1,7.73.28,53,53,0,0,1,9.09,2.6,17.88,17.88,0,0,1,4.82,2.84c1.67-1.67,3.35-3.35,6.08-6.23s6.51-7,9.51-10.54a97.16,97.16,0,0,0,7.59-10.33c2.4-3.72,5-8.12,7.36-12.59a131.94,131.94,0,0,0,6.36-13.92,125.23,125.23,0,0,0,4.78-15.19,126.52,126.52,0,0,0,2.57-14.66c.62-4.95,1.1-10.15,1.32-15s.18-9.47,0-14.65-.41-10.94-1.07-16a61.26,61.26,0,0,0-3.4-13.8,92.1,92.1,0,0,0-7-14.53,131,131,0,0,0-11.16-16.18A123.31,123.31,0,0,0,431,75.06a139.37,139.37,0,0,0-14.48-11.42,154.21,154.21,0,0,0-15-9A110.83,110.83,0,0,0,388.88,49a160.39,160.39,0,0,0-16.42-5.44,117,117,0,0,0-17.61-3.08,127.89,127.89,0,0,0-18.52-.73,84,84,0,0,0-18,2.8,112.9,112.9,0,0,0-20,7.13,96.48,96.48,0,0,0-16.49,10.19,126.76,126.76,0,0,0-10.1,8.63c-2.16,2-3,2.91-3.84,3.5a4.59,4.59,0,0,1-2.43,1,5.12,5.12,0,0,1-2.81-.45,3.33,3.33,0,0,1-1.42-2,3.53,3.53,0,0,1,.13-2.69,15.18,15.18,0,0,1,3.32-4.16c1.85-1.83,4.54-4.2,7.73-6.82s6.89-5.49,10.13-7.69a85.13,85.13,0,0,1,9.18-5.39A107.79,107.79,0,0,1,302.19,39a105.28,105.28,0,0,1,10.3-3.35c2.91-.82,5-1.34,8-1.94s7.11-1.25,10.92-1.65a91.49,91.49,0,0,1,11.91-.44c4.53.09,10,.4,14.79.93a103.25,103.25,0,0,1,13.56,2.42,162.55,162.55,0,0,1,15.68,4.53A139.45,139.45,0,0,1,402,45.56c4.32,2.09,8,4.12,12.09,6.58a132.91,132.91,0,0,1,13.78,9.34,162.12,162.12,0,0,1,14.88,13.25,114.74,114.74,0,0,1,9.93,11.58c2.91,3.79,5.9,7.84,8.26,11.43a89.76,89.76,0,0,1,5.74,10.12,73.6,73.6,0,0,1,4.54,11.21,86.28,86.28,0,0,1,2.68,13.1c.62,4.51,1,9.05,1.3,13.76a149.89,149.89,0,0,1,.24,15.41c-.22,5.81-.83,12.55-1.51,18.16a118.11,118.11,0,0,1-2.73,15.24A148.9,148.9,0,0,1,466,210.92a126.4,126.4,0,0,1-7.07,15.34,179.78,179.78,0,0,1-10.19,16.6c-3.87,5.62-8.14,11.12-11.71,15.35s-6.43,7.17-9.29,10.12c.92,1.63,1.85,3.26,2.71,4.82a27.18,27.18,0,0,1,2.15,4.61,19.18,19.18,0,0,1,.84,5.15,49,49,0,0,1-.15,7.24,43.51,43.51,0,0,1-1.54,8.17,22.26,22.26,0,0,1-2.93,5.92c-1.21,1.83-2.67,3.76-4.52,6.25s-4.09,5.53-11.11,14.71S394.34,349.7,382.54,365l-6.34-5c4.93-6.3,9.87-12.6,17.26-22.2s17.26-22.5,22.72-30,6.52-9.56,7.42-12.31a31.6,31.6,0,0,0,1.65-9.46,24.51,24.51,0,0,0-1.71-8.83,15,15,0,0,0-4-5.81,26.54,26.54,0,0,0-6.8-4.5,22,22,0,0,0-8.15-2.06,23.71,23.71,0,0,0-8.9,1.42c-3.11,1.08-6.39,2.74-17.07,12.12S349.9,304.87,331.82,322Z"/><path class="cls-10" d="M248.79,190.67a.86.86,0,0,1-.73-.5,2.16,2.16,0,0,1-.31-1.18V148.73a2.14,2.14,0,0,1,.31-1.18.84.84,0,0,1,.73-.5h12.34a7.72,7.72,0,0,1,4.33,1.15,8.68,8.68,0,0,1,2.82,3,13.57,13.57,0,0,1,1.52,4.18,24.41,24.41,0,0,1,.46,4.64,18.12,18.12,0,0,1-.25,3.15,15.49,15.49,0,0,1-.6,2.3,7.72,7.72,0,0,1-.71,1.56c-.24.39-.44.7-.59.9a9.53,9.53,0,0,1,2.09,3.9,20.59,20.59,0,0,1,.59,5.33,26.44,26.44,0,0,1-.46,5,14.2,14.2,0,0,1-1.51,4.33,8.82,8.82,0,0,1-2.74,3.06,7.18,7.18,0,0,1-4.14,1.15Zm14.34-30.41a4.89,4.89,0,0,0-.6-2.59,1.92,1.92,0,0,0-1.74-1h-6v7.1h6a1.91,1.91,0,0,0,1.74-1,4.83,4.83,0,0,0,.6-2.58ZM254.84,181h6.33a2.08,2.08,0,0,0,1.84-1.09,5.67,5.67,0,0,0,0-5.42,2.08,2.08,0,0,0-1.84-1.09h-6.33V181Zm30.06-34a11.21,11.21,0,0,0-4.52.87,8.73,8.73,0,0,0-3.39,2.62,12.16,12.16,0,0,0-2.15,4.45,23.89,23.89,0,0,0-.75,6.33,21.87,21.87,0,0,0,1.19,7.76,10.3,10.3,0,0,0,3.37,4.7l-4.75,14.83a2.28,2.28,0,0,0-.12.69,1.89,1.89,0,0,0,.25,1,.71.71,0,0,0,.6.4h5.21a1.18,1.18,0,0,0,1.1-.56,6.18,6.18,0,0,0,.51-1.12l4.26-13.34h3.53V189a2.25,2.25,0,0,0,.3,1.18.89.89,0,0,0,.73.5h5a.86.86,0,0,0,.73-.5,2.16,2.16,0,0,0,.31-1.18V148.73a2.14,2.14,0,0,0-.31-1.18.84.84,0,0,0-.73-.5Zm4.34,18.88H284.9a3.69,3.69,0,0,1-2.66-1c-.7-.66-1.05-1.87-1.05-3.61s.35-2.95,1.05-3.62a3.73,3.73,0,0,1,2.66-1h4.34v9.22Zm32.17-18.88a.84.84,0,0,1,.72.5,2.14,2.14,0,0,1,.31,1.18v6.61a2.16,2.16,0,0,1-.31,1.18.86.86,0,0,1-.72.5h-6.75v32a2.16,2.16,0,0,1-.31,1.18.87.87,0,0,1-.73.5h-5a.89.89,0,0,1-.73-.5,2.25,2.25,0,0,1-.31-1.18V157h-6.74a.86.86,0,0,1-.73-.5,2.16,2.16,0,0,1-.31-1.18v-6.61a2.14,2.14,0,0,1,.31-1.18.84.84,0,0,1,.73-.5Zm10.19,16.57c0,.54,0,1.29-.05,2.25s0,1.94,0,3,0,2,0,3,0,1.73.05,2.27a19.85,19.85,0,0,0,.35,2.75,7.73,7.73,0,0,0,.84,2.3,4.67,4.67,0,0,0,1.46,1.59,3.81,3.81,0,0,0,2.19.59,4.09,4.09,0,0,0,2.14-.5,4.4,4.4,0,0,0,1.38-1.21,5.48,5.48,0,0,0,.83-1.59,14.24,14.24,0,0,0,.44-1.62,5.14,5.14,0,0,1,.42-1.4.92.92,0,0,1,.88-.41h5a.73.73,0,0,1,.6.41,1.76,1.76,0,0,1,.25,1,20.14,20.14,0,0,1-1,6,15.77,15.77,0,0,1-2.53,4.86,12.51,12.51,0,0,1-3.78,3.27,9.42,9.42,0,0,1-4.69,1.21,9.12,9.12,0,0,1-4.93-1.34,11.88,11.88,0,0,1-3.7-3.64,18.27,18.27,0,0,1-2.36-5.39,29.12,29.12,0,0,1-.94-6.51c-.05-1.71-.08-3.54-.08-5.49s0-3.82.08-5.61a27,27,0,0,1,.92-6.51,18.68,18.68,0,0,1,2.36-5.39,11.81,11.81,0,0,1,3.7-3.65,9.32,9.32,0,0,1,4.95-1.34,9.43,9.43,0,0,1,4.69,1.22,12.51,12.51,0,0,1,3.78,3.27,15.77,15.77,0,0,1,2.53,4.86,20.13,20.13,0,0,1,1,6,1.77,1.77,0,0,1-.25,1,.73.73,0,0,1-.6.41h-5a.92.92,0,0,1-.88-.41,5.26,5.26,0,0,1-.42-1.4,14.24,14.24,0,0,0-.44-1.62,5.48,5.48,0,0,0-.83-1.59,4.56,4.56,0,0,0-1.38-1.22,4.18,4.18,0,0,0-2.14-.5,3.81,3.81,0,0,0-2.19.6,4.67,4.67,0,0,0-1.46,1.59,7.73,7.73,0,0,0-.84,2.3,19.71,19.71,0,0,0-.35,2.74Zm43.48,25a1.64,1.64,0,0,1,.12.69,1.8,1.8,0,0,1-.25,1,.7.7,0,0,1-.59.4h-6.1a1.13,1.13,0,0,1-.88-.37,4.86,4.86,0,0,1-.69-1.06l-7.25-14.83V189a2.16,2.16,0,0,1-.31,1.18.86.86,0,0,1-.72.5h-5a.89.89,0,0,1-.73-.5,2.25,2.25,0,0,1-.3-1.18V148.73a2.23,2.23,0,0,1,.3-1.18.87.87,0,0,1,.73-.5h5a.84.84,0,0,1,.72.5,2.14,2.14,0,0,1,.31,1.18v13.15l6.75-13.46c.13-.25.29-.54.5-.87a1.1,1.1,0,0,1,1-.5h6a.71.71,0,0,1,.6.4,1.86,1.86,0,0,1,.25,1,1.56,1.56,0,0,1-.12.68L365,167.92l10.12,20.69Zm8.09,2.06a1.25,1.25,0,0,0,1.06-.56,4.38,4.38,0,0,0,.52-.87l8.78-21.32V189a2.25,2.25,0,0,0,.3,1.18.89.89,0,0,0,.73.5h5a.86.86,0,0,0,.73-.5,2.16,2.16,0,0,0,.31-1.18V148.73a2.14,2.14,0,0,0-.31-1.18.84.84,0,0,0-.73-.5h-4a1.23,1.23,0,0,0-1.06.56,4.12,4.12,0,0,0-.52.87l-8.78,21.31V148.73a2.23,2.23,0,0,0-.3-1.18.87.87,0,0,0-.73-.5h-5a.85.85,0,0,0-.73.5,2.14,2.14,0,0,0-.31,1.18V189a2.16,2.16,0,0,0,.31,1.18.87.87,0,0,0,.73.5Zm34.05-46.43a5.18,5.18,0,0,1-3-.84,6.68,6.68,0,0,1-2-2.18,9.68,9.68,0,0,1-1.13-3,15,15,0,0,1-.35-3.12,1.8,1.8,0,0,1,.19-.84.59.59,0,0,1,.54-.34h3.22a.59.59,0,0,1,.54.34,1.68,1.68,0,0,1,.19.84,4.88,4.88,0,0,0,.46,2.15,1.41,1.41,0,0,0,2.68,0,4.88,4.88,0,0,0,.46-2.15,1.68,1.68,0,0,1,.2-.84.57.57,0,0,1,.53-.34H423a.59.59,0,0,1,.54.34,1.68,1.68,0,0,1,.19.84,15,15,0,0,1-.34,3.12,9.94,9.94,0,0,1-1.13,3,6.82,6.82,0,0,1-2,2.18,5.16,5.16,0,0,1-3,.84ZM411,190.67a1.24,1.24,0,0,0,1.05-.56,3.93,3.93,0,0,0,.52-.87l8.78-21.32V189a2.16,2.16,0,0,0,.31,1.18.87.87,0,0,0,.73.5h5a.89.89,0,0,0,.73-.5,2.25,2.25,0,0,0,.31-1.18V148.73a2.23,2.23,0,0,0-.31-1.18.87.87,0,0,0-.73-.5h-4a1.23,1.23,0,0,0-1.05.56,4.12,4.12,0,0,0-.52.87l-8.78,21.31V148.73a2.14,2.14,0,0,0-.31-1.18.84.84,0,0,0-.72-.5h-5a.87.87,0,0,0-.73.5,2.23,2.23,0,0,0-.3,1.18V189a2.25,2.25,0,0,0,.3,1.18.89.89,0,0,0,.73.5Zm-98.58,3.64a.87.87,0,0,1,.73.5,2.16,2.16,0,0,1,.31,1.18v6.61a2.14,2.14,0,0,1-.31,1.18.85.85,0,0,1-.73.5H300.59v32a2.29,2.29,0,0,1-.31,1.19.87.87,0,0,1-.73.49h-5a.86.86,0,0,1-.73-.49,2.29,2.29,0,0,1-.31-1.19V196a2.25,2.25,0,0,1,.31-1.18.87.87,0,0,1,.73-.5Zm15.15,0h-6.21a1.28,1.28,0,0,0-1.17.69,4.56,4.56,0,0,0-.56,1.37l-8.36,39.26a4.4,4.4,0,0,0-.15.93,1.77,1.77,0,0,0,.25,1,.7.7,0,0,0,.59.4h4.83a1.17,1.17,0,0,0,1.1-.53,2.84,2.84,0,0,0,.4-1l1.07-5.18h10.2l1.08,5.18a2.67,2.67,0,0,0,.4,1,1.17,1.17,0,0,0,1.09.53H337a.71.71,0,0,0,.6-.4,1.86,1.86,0,0,0,.25-1,4.58,4.58,0,0,0-.16-.93l-8.36-39.26a4.53,4.53,0,0,0-.55-1.37,1.28,1.28,0,0,0-1.17-.69Zm-6.21,27.23,3.1-14.95,3.11,14.95ZM358,194.31a.86.86,0,0,1,.72.5A2.16,2.16,0,0,1,359,196v6.61a2.14,2.14,0,0,1-.31,1.18.84.84,0,0,1-.72.5H351.2v32a2.2,2.2,0,0,1-.31,1.19.86.86,0,0,1-.73.49h-5a.87.87,0,0,1-.73-.49,2.29,2.29,0,0,1-.31-1.19v-32h-6.74a.84.84,0,0,1-.73-.5,2.14,2.14,0,0,1-.31-1.18V196a2.16,2.16,0,0,1,.31-1.18.86.86,0,0,1,.73-.5Zm17.82,31c-.61,1.87-1.25,3.58-1.91,5.11a22.47,22.47,0,0,1-2.19,4A9.57,9.57,0,0,1,369,237a6.11,6.11,0,0,1-3.32.93h-2.8a.87.87,0,0,1-.73-.49,2.29,2.29,0,0,1-.3-1.19v-6.6a2.26,2.26,0,0,1,.3-1.19.89.89,0,0,1,.73-.5h2.8c.59,0,1.16-.41,1.73-1.24a19.17,19.17,0,0,0,1.84-4.24l-8.71-26a2.49,2.49,0,0,1-.15-.81,1.76,1.76,0,0,1,.25-1,.7.7,0,0,1,.59-.41h5.29a1.25,1.25,0,0,1,1.15.62,3.66,3.66,0,0,1,.46.94l4.8,15.33,4.87-15.33a3.66,3.66,0,0,1,.46-.94,1.27,1.27,0,0,1,1.15-.62h5.25a.7.7,0,0,1,.59.41,1.76,1.76,0,0,1,.25,1,2.49,2.49,0,0,1-.15.81Z"/><text class="cls-11" transform="translate(278.33 37.76) rotate(-24.06)">В</text><text class="cls-11" transform="translate(292.53 31.45) rotate(-18.41)">Е</text><text class="cls-11" transform="translate(305.7 27.02) rotate(-12.67)">Т</text><text class="cls-11" transform="translate(320.39 23.73) rotate(-6.87)">Е</text><text class="cls-11" transform="translate(333.93 22.02) rotate(-0.83)">Р</text><text class="cls-11" transform="translate(349.61 21.79) rotate(5.53)">И</text><text class="cls-11" transform="translate(366.49 23.44) rotate(13.02)">Н</text><text class="cls-11" transform="matrix(0.94, 0.34, -0.34, 0.94, 383.45, 27.37)">А</text><text class="cls-11" transform="translate(398.8 32.98) rotate(26.58)">Р</text><text class="cls-11" transform="translate(412.85 39.94) rotate(33)">Н</text><text class="cls-11" transform="translate(427.46 49.45) rotate(39.38)">А</text><text class="cls-11" transform="translate(440.13 59.88) rotate(45.2)">Я</text><text class="cls-11" transform="translate(450.33 70.35) rotate(49.49)"> </text><text class="cls-11" transform="matrix(0.64, 0.77, -0.77, 0.64, 454.33, 75.08)"> <tspan x="6.23" y="0"> </tspan><tspan x="12.45" y="0"> </tspan><tspan x="18.68" y="0"> </tspan></text><text class="cls-11" transform="matrix(0.52, 0.85, -0.85, 0.52, 457.88, 80.7)">К</text><text class="cls-11" transform="translate(466.11 94.02) rotate(65.46)">Л</text><text class="cls-11" transform="matrix(0.3, 0.95, -0.95, 0.3, 473.26, 109.62)">И</text><text class="cls-11" transform="translate(478.35 125.83) rotate(80.15)">Н</text><text class="cls-11" transform="translate(481.31 142.71) rotate(87.62)">И</text><text class="cls-11" transform="translate(482.01 159.7) rotate(94.75)">К</text><text class="cls-11" transform="matrix(-0.2, 0.98, -0.98, -0.2, 480.76, 175.31)">А</text></g></g></svg>